<?xml version="1.0" encoding="UTF-8"?>
<svg xmlns="http://www.w3.org/2000/svg" xmlns:xlink="http://www.w3.org/1999/xlink"
     width="1756" height="425" viewBox="0 0 1756 425">
<defs>
</defs>
<style>@media (prefers-color-scheme: dark) {
    .nf-metro-section-label { fill: #d0d0d0; }
    .nf-metro-section-num-circle { fill: #777777; }
    .nf-metro-title { fill: #ffffff; }
}
</style>
<text x="60.0" y="30.0" font-size="26.0" fill="#111111" font-family="'Helvetica Neue', Helvetica, Arial, sans-serif" font-weight="bold" class="nf-metro-title">nf-chain</text>
<rect x="60.0" y="70.0" width="152.0" height="140.0" rx="8" ry="8" fill="#ededed" stroke="#e6e6e6" stroke-width="1.0" class="nf-metro-section-box" data-section-id="prepare_fastas" data-section-lines="main,prepare_fastas_generate_chains" />
<circle cx="71.0" cy="55.0" r="11" fill="#333333" class="nf-metro-section-num-circle" data-section-id="prepare_fastas" />
<text x="71.0" y="55.0" font-size="12" fill="#ffffff" font-family="'Helvetica Neue', Helvetica, Arial, sans-serif" font-weight="bold" text-anchor="middle" dy="0.3em" data-section-id="prepare_fastas">1</text>
<text x="87.0" y="55.0" font-size="17.0" fill="#666666" font-family="'Helvetica Neue', Helvetica, Arial, sans-serif" font-weight="bold" dy="0.3em" class="nf-metro-section-label" data-section-id="prepare_fastas">Prepare Fastas</text>
<rect x="262.0" y="70.0" width="588.5" height="180.0" rx="8" ry="8" fill="#ededed" stroke="#e6e6e6" stroke-width="1.0" class="nf-metro-section-box" data-section-id="align_assemblies" data-section-lines="main" />
<circle cx="273.0" cy="55.0" r="11" fill="#333333" class="nf-metro-section-num-circle" data-section-id="align_assemblies" />
<text x="273.0" y="55.0" font-size="12" fill="#ffffff" font-family="'Helvetica Neue', Helvetica, Arial, sans-serif" font-weight="bold" text-anchor="middle" dy="0.3em" data-section-id="align_assemblies">2</text>
<text x="289.0" y="55.0" font-size="17.0" fill="#666666" font-family="'Helvetica Neue', Helvetica, Arial, sans-serif" font-weight="bold" dy="0.3em" class="nf-metro-section-label" data-section-id="align_assemblies">Align Assemblies</text>
<rect x="900.5" y="70.0" width="564.0" height="180.0" rx="8" ry="8" fill="#ededed" stroke="#e6e6e6" stroke-width="1.0" class="nf-metro-section-box" data-section-id="generate_chains" data-section-lines="main,prepare_fastas_generate_chains,spur" />
<circle cx="911.5" cy="55.0" r="11" fill="#333333" class="nf-metro-section-num-circle" data-section-id="generate_chains" />
<text x="911.5" y="55.0" font-size="12" fill="#ffffff" font-family="'Helvetica Neue', Helvetica, Arial, sans-serif" font-weight="bold" text-anchor="middle" dy="0.3em" data-section-id="generate_chains">3</text>
<text x="927.5" y="55.0" font-size="17.0" fill="#666666" font-family="'Helvetica Neue', Helvetica, Arial, sans-serif" font-weight="bold" dy="0.3em" class="nf-metro-section-label" data-section-id="generate_chains">Generate Chains</text>
<rect x="1544.5" y="70.0" width="152.0" height="140.0" rx="8" ry="8" fill="#ededed" stroke="#e6e6e6" stroke-width="1.0" class="nf-metro-section-box" data-section-id="liftover" data-section-lines="main" />
<circle cx="1555.5" cy="55.0" r="11" fill="#333333" class="nf-metro-section-num-circle" data-section-id="liftover" />
<text x="1555.5" y="55.0" font-size="12" fill="#ffffff" font-family="'Helvetica Neue', Helvetica, Arial, sans-serif" font-weight="bold" text-anchor="middle" dy="0.3em" data-section-id="liftover">4</text>
<text x="1571.5" y="55.0" font-size="17.0" fill="#666666" font-family="'Helvetica Neue', Helvetica, Arial, sans-serif" font-weight="bold" dy="0.3em" class="nf-metro-section-label" data-section-id="liftover">Liftover</text>
<path d="M136.0,123.0 L155.5,123.0 Q165.5,123.0,171.2218159602408,131.20126954301185 L189.7781840397592,157.79873045698815 Q195.5,166.0,205.5,166.0 L212.0,166.0" stroke="#0570b0" stroke-width="4.0" fill="none" stroke-linecap="round" stroke-linejoin="round" class="metro-line-prepare_fastas_generate_chains" data-line-id="prepare_fastas_generate_chains" />
<path d="M900.5,166.0 L905.5,166.0 Q915.5,166.0,921.2218159602409,157.79873045698815 L939.7781840397591,131.20126954301185 Q945.5,123.0,955.5,123.0 L986.5,123.0" stroke="#0570b0" stroke-width="4.0" fill="none" stroke-linecap="round" stroke-linejoin="round" class="metro-line-prepare_fastas_generate_chains" data-line-id="prepare_fastas_generate_chains" />
<path d="M136.0,166.0 L212.0,166.0" stroke="#0570b0" stroke-width="4.0" stroke-linecap="round" class="metro-line-prepare_fastas_generate_chains" data-line-id="prepare_fastas_generate_chains" />
<path d="M212.0,166.0 L222.0,166.0" stroke="#0570b0" stroke-width="4.0" stroke-linecap="round" class="metro-line-prepare_fastas_generate_chains" data-line-id="prepare_fastas_generate_chains" />
<path d="M222.0,166.0 L222.0,166.0 Q232.0,166.0,232.0,176.0 L232.0,265.0 Q232.0,275.0,242.0,275.0 L878.5,275.0 Q888.5,275.0,888.5,265.0 L888.5,176.0 Q888.5,166.0,898.5,166.0 L900.5,166.0" stroke="#0570b0" stroke-width="4.0" fill="none" stroke-linecap="round" stroke-linejoin="round" class="metro-line-prepare_fastas_generate_chains" data-line-id="prepare_fastas_generate_chains" />
<path d="M1310.5,163.0 L1341.0,163.0 Q1351.0,163.0,1357.0,171.0 L1375.0,195.0 Q1381.0,203.0,1391.0,203.0 L1411.0,203.0" stroke="#f5c542" stroke-width="4.0" fill="none" stroke-linecap="round" stroke-linejoin="round" class="metro-line-spur" data-line-id="spur" />
<path d="M348.0,160.0 L396.5,160.0 Q406.5,160.0,412.5,152.0 L430.5,128.0 Q436.5,120.0,446.5,120.0 L538.5,120.0" stroke="#2db572" stroke-width="4.0" fill="none" stroke-linecap="round" stroke-linejoin="round" class="metro-line-main" data-line-id="main" />
<path d="M348.0,160.0 L538.5,160.0" stroke="#2db572" stroke-width="4.0" stroke-linecap="round" class="metro-line-main" data-line-id="main" />
<path d="M348.0,160.0 L396.5,160.0 Q406.5,160.0,412.5,168.0 L430.5,192.0 Q436.5,200.0,446.5,200.0 L538.5,200.0" stroke="#2db572" stroke-width="4.0" fill="none" stroke-linecap="round" stroke-linejoin="round" class="metro-line-main" data-line-id="main" />
<path d="M538.5,120.0 L742.5,120.0 Q752.5,120.0,758.5,128.0 L776.5,152.0 Q782.5,160.0,792.5,160.0 L800.5,160.0" stroke="#2db572" stroke-width="4.0" fill="none" stroke-linecap="round" stroke-linejoin="round" class="metro-line-main" data-line-id="main" />
<path d="M538.5,160.0 L800.5,160.0" stroke="#2db572" stroke-width="4.0" stroke-linecap="round" class="metro-line-main" data-line-id="main" />
<path d="M538.5,200.0 L670.5,200.0" stroke="#2db572" stroke-width="4.0" stroke-linecap="round" class="metro-line-main" data-line-id="main" />
<path d="M538.5,200.0 L742.5,200.0 Q752.5,200.0,758.5,192.0 L776.5,168.0 Q782.5,160.0,792.5,160.0 L800.5,160.0" stroke="#2db572" stroke-width="4.0" fill="none" stroke-linecap="round" stroke-linejoin="round" class="metro-line-main" data-line-id="main" />
<path d="M670.5,200.0 L742.5,200.0 Q752.5,200.0,758.5,192.0 L776.5,168.0 Q782.5,160.0,792.5,160.0 L800.5,160.0" stroke="#2db572" stroke-width="4.0" fill="none" stroke-linecap="round" stroke-linejoin="round" class="metro-line-main" data-line-id="main" />
<path d="M986.5,120.0 L1044.0,120.0 Q1054.0,120.0,1060.0,128.0 L1078.0,152.0 Q1084.0,160.0,1094.0,160.0 L1310.5,160.0" stroke="#2db572" stroke-width="4.0" fill="none" stroke-linecap="round" stroke-linejoin="round" class="metro-line-main" data-line-id="main" />
<path d="M986.5,120.0 L1044.0,120.0 Q1054.0,120.0,1057.511234415884,129.36329177569044 L1080.488765584116,190.63670822430956 Q1084.0,200.0,1094.0,200.0 L1150.0,200.0" stroke="#2db572" stroke-width="4.0" fill="none" stroke-linecap="round" stroke-linejoin="round" class="metro-line-main" data-line-id="main" />
<path d="M1150.0,200.0 L1160.0,200.0 Q1170.0,200.0,1176.0,192.0 L1194.0,168.0 Q1200.0,160.0,1210.0,160.0 L1210.0,160.0" stroke="#2db572" stroke-width="4.0" fill="none" stroke-linecap="round" stroke-linejoin="round" class="metro-line-main" data-line-id="main" />
<path d="M1210.0,160.0 L1310.5,160.0" stroke="#2db572" stroke-width="4.0" stroke-linecap="round" class="metro-line-main" data-line-id="main" />
<path d="M1310.5,160.0 L1464.5,160.0" stroke="#2db572" stroke-width="4.0" stroke-linecap="round" class="metro-line-main" data-line-id="main" />
<path d="M1544.5,120.0 L1620.5,120.0" stroke="#2db572" stroke-width="4.0" stroke-linecap="round" class="metro-line-main" data-line-id="main" />
<path d="M1544.5,120.0 L1549.5,120.0 Q1559.5,120.0,1565.5,128.0 L1583.5,152.0 Q1589.5,160.0,1599.5,160.0 L1620.5,160.0" stroke="#2db572" stroke-width="4.0" fill="none" stroke-linecap="round" stroke-linejoin="round" class="metro-line-main" data-line-id="main" />
<path d="M136.0,120.0 L158.5,120.0 Q168.5,120.0,174.5,128.0 L192.5,152.0 Q198.5,160.0,208.5,160.0 L212.0,160.0" stroke="#2db572" stroke-width="4.0" fill="none" stroke-linecap="round" stroke-linejoin="round" class="metro-line-main" data-line-id="main" />
<path d="M262.0,160.0 L348.0,160.0" stroke="#2db572" stroke-width="4.0" stroke-linecap="round" class="metro-line-main" data-line-id="main" />
<path d="M262.0,160.0 L267.0,160.0 Q277.0,160.0,283.0,152.0 L301.0,128.0 Q307.0,120.0,317.0,120.0 L538.5,120.0" stroke="#2db572" stroke-width="4.0" fill="none" stroke-linecap="round" stroke-linejoin="round" class="metro-line-main" data-line-id="main" />
<path d="M262.0,160.0 L538.5,160.0" stroke="#2db572" stroke-width="4.0" stroke-linecap="round" class="metro-line-main" data-line-id="main" />
<path d="M262.0,160.0 L267.0,160.0 Q277.0,160.0,283.0,168.0 L301.0,192.0 Q307.0,200.0,317.0,200.0 L538.5,200.0" stroke="#2db572" stroke-width="4.0" fill="none" stroke-linecap="round" stroke-linejoin="round" class="metro-line-main" data-line-id="main" />
<path d="M136.0,160.0 L212.0,160.0" stroke="#2db572" stroke-width="4.0" stroke-linecap="round" class="metro-line-main" data-line-id="main" />
<path d="M800.5,160.0 L850.5,160.0" stroke="#2db572" stroke-width="4.0" stroke-linecap="round" class="metro-line-main" data-line-id="main" />
<path d="M900.5,160.0 L1310.5,160.0" stroke="#2db572" stroke-width="4.0" stroke-linecap="round" class="metro-line-main" data-line-id="main" />
<path d="M900.5,160.0 L905.5,160.0 Q915.5,160.0,921.5,168.0 L939.5,192.0 Q945.5,200.0,955.5,200.0 L1150.0,200.0" stroke="#2db572" stroke-width="4.0" fill="none" stroke-linecap="round" stroke-linejoin="round" class="metro-line-main" data-line-id="main" />
<path d="M1464.5,160.0 L1494.5,160.0 Q1504.5,160.0,1504.5,150.0 L1504.5,130.0 Q1504.5,120.0,1514.5,120.0 L1544.5,120.0" stroke="#2db572" stroke-width="4.0" fill="none" stroke-linecap="round" stroke-linejoin="round" class="metro-line-main" data-line-id="main" />
<path d="M212.0,160.0 L222.0,160.0" stroke="#2db572" stroke-width="4.0" stroke-linecap="round" class="metro-line-main" data-line-id="main" />
<path d="M222.0,160.0 L262.0,160.0" stroke="#2db572" stroke-width="4.0" stroke-linecap="round" class="metro-line-main" data-line-id="main" />
<path d="M850.5,160.0 L900.5,160.0" stroke="#2db572" stroke-width="4.0" stroke-linecap="round" class="metro-line-main" data-line-id="main" />
<path id="motion-path-main-0" d="M 136.00 120.00 L 158.50 120.00 Q 168.50 120.00 174.50 128.00 L 194.45 154.60 Q 198.50 160.00 205.25 160.00 L 207.00 160.00 Q 212.00 160.00 217.00 160.00 L 217.00 160.00 Q 222.00 160.00 227.00 160.00 L 252.00 160.00 Q 262.00 160.00 272.00 160.00 L 338.00 160.00 Q 348.00 160.00 358.00 160.00 L 396.50 160.00 Q 406.50 160.00 412.50 152.00 L 430.50 128.00 Q 436.50 120.00 446.50 120.00 L 528.50 120.00 Q 538.50 120.00 548.50 120.00 L 742.50 120.00 Q 752.50 120.00 758.50 128.00 L 777.10 152.80 Q 782.50 160.00 791.50 160.00 L 791.50 160.00 Q 800.50 160.00 809.50 160.00 L 840.50 160.00 Q 850.50 160.00 860.50 160.00 L 890.50 160.00 Q 900.50 160.00 910.50 160.00 L 1300.50 160.00 Q 1310.50 160.00 1320.50 160.00 L 1454.50 160.00 Q 1464.50 160.00 1474.50 160.00 L 1494.50 160.00 Q 1504.50 160.00 1504.50 150.00 L 1504.50 130.00 Q 1504.50 120.00 1514.50 120.00 L 1534.50 120.00 Q 1544.50 120.00 1554.50 120.00 L 1620.50 120.00" fill="none" stroke="none"/>
<circle r="3.0" fill="#ffffff" opacity="0.9" stroke="#333333" stroke-width="1.5"><animateMotion dur="20.12s" keyPoints="0;1;1" keyTimes="0;0.9773;1" calcMode="linear" repeatCount="indefinite" begin="0.00s"><mpath href="#motion-path-main-0"/></animateMotion></circle>
<path id="motion-path-main-1" d="M 136.00 120.00 L 158.50 120.00 Q 168.50 120.00 174.50 128.00 L 194.45 154.60 Q 198.50 160.00 205.25 160.00 L 207.00 160.00 Q 212.00 160.00 217.00 160.00 L 217.00 160.00 Q 222.00 160.00 227.00 160.00 L 252.00 160.00 Q 262.00 160.00 272.00 160.00 L 338.00 160.00 Q 348.00 160.00 358.00 160.00 L 528.50 160.00 Q 538.50 160.00 548.50 160.00 L 790.50 160.00 Q 800.50 160.00 810.50 160.00 L 840.50 160.00 Q 850.50 160.00 860.50 160.00 L 890.50 160.00 Q 900.50 160.00 910.50 160.00 L 1300.50 160.00 Q 1310.50 160.00 1320.50 160.00 L 1454.50 160.00 Q 1464.50 160.00 1474.50 160.00 L 1494.50 160.00 Q 1504.50 160.00 1504.50 150.00 L 1504.50 130.00 Q 1504.50 120.00 1514.50 120.00 L 1534.50 120.00 Q 1544.50 120.00 1554.50 120.00 L 1620.50 120.00" fill="none" stroke="none"/>
<circle r="3.0" fill="#ffffff" opacity="0.9" stroke="#333333" stroke-width="1.5"><animateMotion dur="20.12s" keyPoints="0;1;1" keyTimes="0;0.9550;1" calcMode="linear" repeatCount="indefinite" begin="0.00s"><mpath href="#motion-path-main-1"/></animateMotion></circle>
<path id="motion-path-main-2" d="M 136.00 120.00 L 158.50 120.00 Q 168.50 120.00 174.50 128.00 L 194.45 154.60 Q 198.50 160.00 205.25 160.00 L 207.00 160.00 Q 212.00 160.00 217.00 160.00 L 217.00 160.00 Q 222.00 160.00 227.00 160.00 L 252.00 160.00 Q 262.00 160.00 272.00 160.00 L 338.00 160.00 Q 348.00 160.00 358.00 160.00 L 396.50 160.00 Q 406.50 160.00 412.50 168.00 L 430.50 192.00 Q 436.50 200.00 446.50 200.00 L 528.50 200.00 Q 538.50 200.00 548.50 200.00 L 660.50 200.00 Q 670.50 200.00 680.50 200.00 L 742.50 200.00 Q 752.50 200.00 758.50 192.00 L 777.10 167.20 Q 782.50 160.00 791.50 160.00 L 791.50 160.00 Q 800.50 160.00 809.50 160.00 L 840.50 160.00 Q 850.50 160.00 860.50 160.00 L 890.50 160.00 Q 900.50 160.00 910.50 160.00 L 1300.50 160.00 Q 1310.50 160.00 1320.50 160.00 L 1454.50 160.00 Q 1464.50 160.00 1474.50 160.00 L 1494.50 160.00 Q 1504.50 160.00 1504.50 150.00 L 1504.50 130.00 Q 1504.50 120.00 1514.50 120.00 L 1534.50 120.00 Q 1544.50 120.00 1554.50 120.00 L 1620.50 120.00" fill="none" stroke="none"/>
<circle r="3.0" fill="#ffffff" opacity="0.9" stroke="#333333" stroke-width="1.5"><animateMotion dur="20.12s" keyPoints="0;1;1" keyTimes="0;0.9773;1" calcMode="linear" repeatCount="indefinite" begin="0.00s"><mpath href="#motion-path-main-2"/></animateMotion></circle>
<path id="motion-path-main-3" d="M 136.00 120.00 L 158.50 120.00 Q 168.50 120.00 174.50 128.00 L 194.45 154.60 Q 198.50 160.00 205.25 160.00 L 207.00 160.00 Q 212.00 160.00 217.00 160.00 L 217.00 160.00 Q 222.00 160.00 227.00 160.00 L 252.00 160.00 Q 262.00 160.00 272.00 160.00 L 338.00 160.00 Q 348.00 160.00 358.00 160.00 L 396.50 160.00 Q 406.50 160.00 412.50 152.00 L 430.50 128.00 Q 436.50 120.00 446.50 120.00 L 528.50 120.00 Q 538.50 120.00 548.50 120.00 L 742.50 120.00 Q 752.50 120.00 758.50 128.00 L 777.10 152.80 Q 782.50 160.00 791.50 160.00 L 791.50 160.00 Q 800.50 160.00 809.50 160.00 L 840.50 160.00 Q 850.50 160.00 860.50 160.00 L 890.50 160.00 Q 900.50 160.00 910.50 160.00 L 1300.50 160.00 Q 1310.50 160.00 1320.50 160.00 L 1454.50 160.00 Q 1464.50 160.00 1474.50 160.00 L 1494.50 160.00 Q 1504.50 160.00 1504.50 150.00 L 1504.50 130.00 Q 1504.50 120.00 1514.50 120.00 L 1534.50 120.00 Q 1544.50 120.00 1554.50 120.00 L 1620.50 120.00" fill="none" stroke="none"/>
<circle r="3.0" fill="#ffffff" opacity="0.9" stroke="#333333" stroke-width="1.5"><animateMotion dur="20.12s" keyPoints="0;1;1" keyTimes="0;0.9773;1" calcMode="linear" repeatCount="indefinite" begin="0.00s"><mpath href="#motion-path-main-3"/></animateMotion></circle>
<path id="motion-path-main-4" d="M 136.00 120.00 L 158.50 120.00 Q 168.50 120.00 174.50 128.00 L 194.45 154.60 Q 198.50 160.00 205.25 160.00 L 207.00 160.00 Q 212.00 160.00 217.00 160.00 L 217.00 160.00 Q 222.00 160.00 227.00 160.00 L 252.00 160.00 Q 262.00 160.00 272.00 160.00 L 338.00 160.00 Q 348.00 160.00 358.00 160.00 L 396.50 160.00 Q 406.50 160.00 412.50 152.00 L 430.50 128.00 Q 436.50 120.00 446.50 120.00 L 528.50 120.00 Q 538.50 120.00 548.50 120.00 L 742.50 120.00 Q 752.50 120.00 758.50 128.00 L 777.10 152.80 Q 782.50 160.00 791.50 160.00 L 791.50 160.00 Q 800.50 160.00 809.50 160.00 L 840.50 160.00 Q 850.50 160.00 860.50 160.00 L 890.50 160.00 Q 900.50 160.00 910.50 160.00 L 1300.50 160.00 Q 1310.50 160.00 1320.50 160.00 L 1454.50 160.00 Q 1464.50 160.00 1474.50 160.00 L 1494.50 160.00 Q 1504.50 160.00 1504.50 150.00 L 1504.50 130.00 Q 1504.50 120.00 1514.50 120.00 L 1534.50 120.00 Q 1544.50 120.00 1554.50 120.00 L 1620.50 120.00" fill="none" stroke="none"/>
<circle r="3.0" fill="#ffffff" opacity="0.9" stroke="#333333" stroke-width="1.5"><animateMotion dur="20.12s" keyPoints="0;1;1" keyTimes="0;0.9773;1" calcMode="linear" repeatCount="indefinite" begin="0.00s"><mpath href="#motion-path-main-4"/></animateMotion></circle>
<path id="motion-path-main-5" d="M 136.00 120.00 L 158.50 120.00 Q 168.50 120.00 174.50 128.00 L 194.45 154.60 Q 198.50 160.00 205.25 160.00 L 207.00 160.00 Q 212.00 160.00 217.00 160.00 L 217.00 160.00 Q 222.00 160.00 227.00 160.00 L 252.00 160.00 Q 262.00 160.00 272.00 160.00 L 338.00 160.00 Q 348.00 160.00 358.00 160.00 L 396.50 160.00 Q 406.50 160.00 412.50 152.00 L 430.50 128.00 Q 436.50 120.00 446.50 120.00 L 528.50 120.00 Q 538.50 120.00 548.50 120.00 L 742.50 120.00 Q 752.50 120.00 758.50 128.00 L 777.10 152.80 Q 782.50 160.00 791.50 160.00 L 791.50 160.00 Q 800.50 160.00 809.50 160.00 L 840.50 160.00 Q 850.50 160.00 860.50 160.00 L 890.50 160.00 Q 900.50 160.00 910.50 160.00 L 1300.50 160.00 Q 1310.50 160.00 1320.50 160.00 L 1454.50 160.00 Q 1464.50 160.00 1474.50 160.00 L 1494.50 160.00 Q 1504.50 160.00 1504.50 150.00 L 1504.50 130.00 Q 1504.50 120.00 1514.50 120.00 L 1534.50 120.00 Q 1544.50 120.00 1554.50 120.00 L 1620.50 120.00" fill="none" stroke="none"/>
<circle r="3.0" fill="#ffffff" opacity="0.9" stroke="#333333" stroke-width="1.5"><animateMotion dur="20.12s" keyPoints="0;1;1" keyTimes="0;0.9773;1" calcMode="linear" repeatCount="indefinite" begin="0.00s"><mpath href="#motion-path-main-5"/></animateMotion></circle>
<path id="motion-path-main-6" d="M 136.00 120.00 L 158.50 120.00 Q 168.50 120.00 174.50 128.00 L 194.45 154.60 Q 198.50 160.00 205.25 160.00 L 207.00 160.00 Q 212.00 160.00 217.00 160.00 L 217.00 160.00 Q 222.00 160.00 227.00 160.00 L 252.00 160.00 Q 262.00 160.00 272.00 160.00 L 338.00 160.00 Q 348.00 160.00 358.00 160.00 L 396.50 160.00 Q 406.50 160.00 412.50 152.00 L 430.50 128.00 Q 436.50 120.00 446.50 120.00 L 528.50 120.00 Q 538.50 120.00 548.50 120.00 L 742.50 120.00 Q 752.50 120.00 758.50 128.00 L 777.10 152.80 Q 782.50 160.00 791.50 160.00 L 791.50 160.00 Q 800.50 160.00 809.50 160.00 L 840.50 160.00 Q 850.50 160.00 860.50 160.00 L 890.50 160.00 Q 900.50 160.00 910.50 160.00 L 1300.50 160.00 Q 1310.50 160.00 1320.50 160.00 L 1454.50 160.00 Q 1464.50 160.00 1474.50 160.00 L 1494.50 160.00 Q 1504.50 160.00 1504.50 150.00 L 1504.50 130.00 Q 1504.50 120.00 1514.50 120.00 L 1534.50 120.00 Q 1544.50 120.00 1554.50 120.00 L 1620.50 120.00" fill="none" stroke="none"/>
<circle r="3.0" fill="#ffffff" opacity="0.9" stroke="#333333" stroke-width="1.5"><animateMotion dur="20.12s" keyPoints="0;1;1" keyTimes="0;0.9773;1" calcMode="linear" repeatCount="indefinite" begin="0.00s"><mpath href="#motion-path-main-6"/></animateMotion></circle>
<path id="motion-path-main-7" d="M 136.00 120.00 L 158.50 120.00 Q 168.50 120.00 174.50 128.00 L 194.45 154.60 Q 198.50 160.00 205.25 160.00 L 207.00 160.00 Q 212.00 160.00 217.00 160.00 L 217.00 160.00 Q 222.00 160.00 227.00 160.00 L 252.00 160.00 Q 262.00 160.00 272.00 160.00 L 338.00 160.00 Q 348.00 160.00 358.00 160.00 L 396.50 160.00 Q 406.50 160.00 412.50 152.00 L 430.50 128.00 Q 436.50 120.00 446.50 120.00 L 528.50 120.00 Q 538.50 120.00 548.50 120.00 L 742.50 120.00 Q 752.50 120.00 758.50 128.00 L 777.10 152.80 Q 782.50 160.00 791.50 160.00 L 791.50 160.00 Q 800.50 160.00 809.50 160.00 L 840.50 160.00 Q 850.50 160.00 860.50 160.00 L 890.50 160.00 Q 900.50 160.00 910.50 160.00 L 1300.50 160.00 Q 1310.50 160.00 1320.50 160.00 L 1454.50 160.00 Q 1464.50 160.00 1474.50 160.00 L 1494.50 160.00 Q 1504.50 160.00 1504.50 150.00 L 1504.50 130.00 Q 1504.50 120.00 1514.50 120.00 L 1537.00 120.00 Q 1544.50 120.00 1552.00 120.00 L 1552.00 120.00 Q 1559.50 120.00 1564.00 126.00 L 1583.50 152.00 Q 1589.50 160.00 1599.50 160.00 L 1620.50 160.00" fill="none" stroke="none"/>
<circle r="3.0" fill="#ffffff" opacity="0.9" stroke="#333333" stroke-width="1.5"><animateMotion dur="20.12s" keyPoints="0;1;1" keyTimes="0;0.9886;1" calcMode="linear" repeatCount="indefinite" begin="0.00s"><mpath href="#motion-path-main-7"/></animateMotion></circle>
<path id="motion-path-main-8" d="M 136.00 120.00 L 158.50 120.00 Q 168.50 120.00 174.50 128.00 L 194.45 154.60 Q 198.50 160.00 205.25 160.00 L 207.00 160.00 Q 212.00 160.00 217.00 160.00 L 217.00 160.00 Q 222.00 160.00 227.00 160.00 L 254.50 160.00 Q 262.00 160.00 269.50 160.00 L 269.50 160.00 Q 277.00 160.00 281.50 154.00 L 301.00 128.00 Q 307.00 120.00 317.00 120.00 L 528.50 120.00 Q 538.50 120.00 548.50 120.00 L 742.50 120.00 Q 752.50 120.00 758.50 128.00 L 777.10 152.80 Q 782.50 160.00 791.50 160.00 L 791.50 160.00 Q 800.50 160.00 809.50 160.00 L 840.50 160.00 Q 850.50 160.00 860.50 160.00 L 890.50 160.00 Q 900.50 160.00 910.50 160.00 L 1300.50 160.00 Q 1310.50 160.00 1320.50 160.00 L 1454.50 160.00 Q 1464.50 160.00 1474.50 160.00 L 1494.50 160.00 Q 1504.50 160.00 1504.50 150.00 L 1504.50 130.00 Q 1504.50 120.00 1514.50 120.00 L 1534.50 120.00 Q 1544.50 120.00 1554.50 120.00 L 1620.50 120.00" fill="none" stroke="none"/>
<circle r="3.0" fill="#ffffff" opacity="0.9" stroke="#333333" stroke-width="1.5"><animateMotion dur="20.12s" keyPoints="0;1;1" keyTimes="0;0.9774;1" calcMode="linear" repeatCount="indefinite" begin="0.00s"><mpath href="#motion-path-main-8"/></animateMotion></circle>
<path id="motion-path-main-9" d="M 136.00 120.00 L 158.50 120.00 Q 168.50 120.00 174.50 128.00 L 194.45 154.60 Q 198.50 160.00 205.25 160.00 L 207.00 160.00 Q 212.00 160.00 217.00 160.00 L 217.00 160.00 Q 222.00 160.00 227.00 160.00 L 252.00 160.00 Q 262.00 160.00 272.00 160.00 L 528.50 160.00 Q 538.50 160.00 548.50 160.00 L 790.50 160.00 Q 800.50 160.00 810.50 160.00 L 840.50 160.00 Q 850.50 160.00 860.50 160.00 L 890.50 160.00 Q 900.50 160.00 910.50 160.00 L 1300.50 160.00 Q 1310.50 160.00 1320.50 160.00 L 1454.50 160.00 Q 1464.50 160.00 1474.50 160.00 L 1494.50 160.00 Q 1504.50 160.00 1504.50 150.00 L 1504.50 130.00 Q 1504.50 120.00 1514.50 120.00 L 1534.50 120.00 Q 1544.50 120.00 1554.50 120.00 L 1620.50 120.00" fill="none" stroke="none"/>
<circle r="3.0" fill="#ffffff" opacity="0.9" stroke="#333333" stroke-width="1.5"><animateMotion dur="20.12s" keyPoints="0;1;1" keyTimes="0;0.9550;1" calcMode="linear" repeatCount="indefinite" begin="0.00s"><mpath href="#motion-path-main-9"/></animateMotion></circle>
<path id="motion-path-main-10" d="M 136.00 120.00 L 158.50 120.00 Q 168.50 120.00 174.50 128.00 L 194.45 154.60 Q 198.50 160.00 205.25 160.00 L 207.00 160.00 Q 212.00 160.00 217.00 160.00 L 217.00 160.00 Q 222.00 160.00 227.00 160.00 L 254.50 160.00 Q 262.00 160.00 269.50 160.00 L 269.50 160.00 Q 277.00 160.00 281.50 166.00 L 301.00 192.00 Q 307.00 200.00 317.00 200.00 L 528.50 200.00 Q 538.50 200.00 548.50 200.00 L 660.50 200.00 Q 670.50 200.00 680.50 200.00 L 742.50 200.00 Q 752.50 200.00 758.50 192.00 L 777.10 167.20 Q 782.50 160.00 791.50 160.00 L 791.50 160.00 Q 800.50 160.00 809.50 160.00 L 840.50 160.00 Q 850.50 160.00 860.50 160.00 L 890.50 160.00 Q 900.50 160.00 910.50 160.00 L 1300.50 160.00 Q 1310.50 160.00 1320.50 160.00 L 1454.50 160.00 Q 1464.50 160.00 1474.50 160.00 L 1494.50 160.00 Q 1504.50 160.00 1504.50 150.00 L 1504.50 130.00 Q 1504.50 120.00 1514.50 120.00 L 1534.50 120.00 Q 1544.50 120.00 1554.50 120.00 L 1620.50 120.00" fill="none" stroke="none"/>
<circle r="3.0" fill="#ffffff" opacity="0.9" stroke="#333333" stroke-width="1.5"><animateMotion dur="20.12s" keyPoints="0;1;1" keyTimes="0;0.9774;1" calcMode="linear" repeatCount="indefinite" begin="0.00s"><mpath href="#motion-path-main-10"/></animateMotion></circle>
<path id="motion-path-main-11" d="M 136.00 120.00 L 158.50 120.00 Q 168.50 120.00 174.50 128.00 L 194.45 154.60 Q 198.50 160.00 205.25 160.00 L 207.00 160.00 Q 212.00 160.00 217.00 160.00 L 217.00 160.00 Q 222.00 160.00 227.00 160.00 L 252.00 160.00 Q 262.00 160.00 272.00 160.00 L 338.00 160.00 Q 348.00 160.00 358.00 160.00 L 396.50 160.00 Q 406.50 160.00 412.50 152.00 L 430.50 128.00 Q 436.50 120.00 446.50 120.00 L 528.50 120.00 Q 538.50 120.00 548.50 120.00 L 742.50 120.00 Q 752.50 120.00 758.50 128.00 L 777.10 152.80 Q 782.50 160.00 791.50 160.00 L 791.50 160.00 Q 800.50 160.00 809.50 160.00 L 840.50 160.00 Q 850.50 160.00 860.50 160.00 L 893.00 160.00 Q 900.50 160.00 908.00 160.00 L 908.00 160.00 Q 915.50 160.00 920.00 166.00 L 939.50 192.00 Q 945.50 200.00 955.50 200.00 L 1140.00 200.00 Q 1150.00 200.00 1160.00 200.00 L 1160.00 200.00 Q 1170.00 200.00 1176.00 192.00 L 1197.00 164.00 Q 1200.00 160.00 1205.00 160.00 L 1205.00 160.00 Q 1210.00 160.00 1215.00 160.00 L 1300.50 160.00 Q 1310.50 160.00 1320.50 160.00 L 1454.50 160.00 Q 1464.50 160.00 1474.50 160.00 L 1494.50 160.00 Q 1504.50 160.00 1504.50 150.00 L 1504.50 130.00 Q 1504.50 120.00 1514.50 120.00 L 1534.50 120.00 Q 1544.50 120.00 1554.50 120.00 L 1620.50 120.00" fill="none" stroke="none"/>
<circle r="3.0" fill="#ffffff" opacity="0.9" stroke="#333333" stroke-width="1.5"><animateMotion dur="20.12s" repeatCount="indefinite" begin="0.00s"><mpath href="#motion-path-main-11"/></animateMotion></circle>
<path id="motion-path-spur-12" d="M 1310.50 163.00 L 1341.00 163.00 Q 1351.00 163.00 1357.00 171.00 L 1375.00 195.00 Q 1381.00 203.00 1391.00 203.00 L 1411.00 203.00" fill="none" stroke="none"/>
<circle r="3.0" fill="#ffffff" opacity="0.9" stroke="#333333" stroke-width="1.5"><animateMotion dur="20.12s" keyPoints="0;1;1" keyTimes="0;0.0994;1" calcMode="linear" repeatCount="indefinite" begin="0.00s"><mpath href="#motion-path-spur-12"/></animateMotion></circle>
<path id="motion-path-prepare_fastas_generate_chains-13" d="M 136.00 123.00 L 155.50 123.00 Q 165.50 123.00 171.22 131.20 L 190.78 159.23 Q 195.50 166.00 203.75 166.00 L 207.00 166.00 Q 212.00 166.00 217.00 166.00 L 217.00 166.00 Q 222.00 166.00 227.00 166.00 L 227.00 166.00 Q 232.00 166.00 232.00 171.00 L 232.00 265.00 Q 232.00 275.00 242.00 275.00 L 878.50 275.00 Q 888.50 275.00 888.50 265.00 L 888.50 172.00 Q 888.50 166.00 894.50 166.00 L 894.50 166.00 Q 900.50 166.00 906.50 166.00 L 908.00 166.00 Q 915.50 166.00 919.79 159.85 L 939.78 131.20 Q 945.50 123.00 955.50 123.00 L 986.50 123.00" fill="none" stroke="none"/>
<circle r="3.0" fill="#ffffff" opacity="0.9" stroke="#333333" stroke-width="1.5"><animateMotion dur="20.12s" keyPoints="0;1;1" keyTimes="0;0.6837;1" calcMode="linear" repeatCount="indefinite" begin="0.00s"><mpath href="#motion-path-prepare_fastas_generate_chains-13"/></animateMotion></circle>
<rect x="130.0" y="114.0" width="12.0" height="15.0" rx="6.0" ry="6.0" fill="#ffffff" stroke="#333333" stroke-width="2.0" class="nf-metro-station" data-station-id="download_assembly" data-station-lines="main,prepare_fastas_generate_chains" data-station-label="Download Assembly" data-section-id="prepare_fastas" data-section-name="Prepare Fastas" />
<rect x="130.0" y="154.0" width="12.0" height="18.0" rx="6.0" ry="6.0" fill="#ffffff" stroke="#333333" stroke-width="2.0" class="nf-metro-station" data-station-id="unzip_assembly" data-station-lines="main,prepare_fastas_generate_chains" data-station-label="Unzip Assembly" data-section-id="prepare_fastas" data-section-name="Prepare Fastas" />
<rect x="342.0" y="154.0" width="12.0" height="12.0" rx="6.0" ry="6.0" fill="#ffffff" stroke="#333333" stroke-width="2.0" class="nf-metro-station" data-station-id="compute_sizes" data-station-lines="main" data-station-label="Compute Sizes" data-section-id="align_assemblies" data-section-name="Align Assemblies" />
<rect x="532.5" y="114.0" width="12.0" height="12.0" rx="6.0" ry="6.0" fill="#ffffff" stroke="#333333" stroke-width="2.0" class="nf-metro-station" data-station-id="process_source" data-station-lines="main" data-station-label="Process Source" data-section-id="align_assemblies" data-section-name="Align Assemblies" />
<rect x="532.5" y="154.0" width="12.0" height="12.0" rx="6.0" ry="6.0" fill="#ffffff" stroke="#333333" stroke-width="2.0" class="nf-metro-station" data-station-id="kmers_to_exclude" data-station-lines="main" data-station-label="Kmers To Exclude" data-section-id="align_assemblies" data-section-name="Align Assemblies" />
<rect x="532.5" y="194.0" width="12.0" height="12.0" rx="6.0" ry="6.0" fill="#ffffff" stroke="#333333" stroke-width="2.0" class="nf-metro-station" data-station-id="process_target" data-station-lines="main" data-station-label="Process Target" data-section-id="align_assemblies" data-section-name="Align Assemblies" />
<rect x="664.5" y="194.0" width="12.0" height="12.0" rx="6.0" ry="6.0" fill="#ffffff" stroke="#333333" stroke-width="2.0" class="nf-metro-station" data-station-id="split_target" data-station-lines="main" data-station-label="Split Target" data-section-id="align_assemblies" data-section-name="Align Assemblies" />
<rect x="794.5" y="154.0" width="12.0" height="12.0" rx="6.0" ry="6.0" fill="#ffffff" stroke="#333333" stroke-width="2.0" class="nf-metro-station" data-station-id="blat" data-station-lines="main" data-station-label="Blat" data-section-id="align_assemblies" data-section-name="Align Assemblies" />
<rect x="980.5" y="114.0" width="12.0" height="15.0" rx="6.0" ry="6.0" fill="#ffffff" stroke="#333333" stroke-width="2.0" class="nf-metro-station" data-station-id="fasta_to_twobit" data-station-lines="main,prepare_fastas_generate_chains" data-station-label="Fasta To Twobit" data-section-id="generate_chains" data-section-name="Generate Chains" />
<rect x="1144.0" y="194.0" width="12.0" height="12.0" rx="6.0" ry="6.0" fill="#ffffff" stroke="#333333" stroke-width="2.0" class="nf-metro-station" data-station-id="axtchain" data-station-lines="main" data-station-label="Axtchain" data-section-id="generate_chains" data-section-name="Generate Chains" />
<rect x="1204.0" y="154.0" width="12.0" height="12.0" rx="6.0" ry="6.0" fill="#ffffff" stroke="#333333" stroke-width="2.0" class="nf-metro-station" data-station-id="merge_chains" data-station-lines="main" data-station-label="Merge Chains" data-section-id="generate_chains" data-section-name="Generate Chains" />
<rect x="1304.5" y="154.0" width="12.0" height="15.0" rx="6.0" ry="6.0" fill="#ffffff" stroke="#333333" stroke-width="2.0" class="nf-metro-station" data-station-id="net_chain" data-station-lines="main,spur" data-station-label="Net Chain" data-section-id="generate_chains" data-section-name="Generate Chains" />
<rect x="1405.0" y="197.0" width="12.0" height="12.0" rx="6.0" ry="6.0" fill="#ffffff" stroke="#333333" stroke-width="2.0" class="nf-metro-station" data-station-id="chain_stats" data-station-lines="spur" data-station-label="Chain Stats" data-section-id="generate_chains" data-section-name="Generate Chains" />
<rect x="1614.5" y="114.0" width="12.0" height="12.0" rx="6.0" ry="6.0" fill="#ffffff" stroke="#333333" stroke-width="2.0" class="nf-metro-station" data-station-id="liftover_bed" data-station-lines="main" data-station-label="Liftover BED" data-section-id="liftover" data-section-name="Liftover" />
<rect x="1614.5" y="154.0" width="12.0" height="12.0" rx="6.0" ry="6.0" fill="#ffffff" stroke="#333333" stroke-width="2.0" class="nf-metro-station" data-station-id="liftover_gff_or_gtf" data-station-lines="main" data-station-label="Liftover GFF/GTF" data-section-id="liftover" data-section-name="Liftover" />
<text x="986.5" y="106.0" font-size="14.0" fill="#333333" font-family="'Helvetica Neue', Helvetica, Arial, sans-serif" font-weight="bold" text-anchor="middle" dominant-baseline="auto" data-station-id="fasta_to_twobit" class="nf-metro-station-label">Fasta To Twobit</text>
<text x="348.0" y="146.0" font-size="14.0" fill="#333333" font-family="'Helvetica Neue', Helvetica, Arial, sans-serif" font-weight="bold" text-anchor="middle" dominant-baseline="auto" data-station-id="compute_sizes" class="nf-metro-station-label">Compute Sizes</text>
<text x="136.0" y="106.0" font-size="14.0" fill="#333333" font-family="'Helvetica Neue', Helvetica, Arial, sans-serif" font-weight="bold" text-anchor="middle" dominant-baseline="auto" data-station-id="download_assembly" class="nf-metro-station-label">Download Assembly</text>
<text x="1620.5" y="106.0" font-size="14.0" fill="#333333" font-family="'Helvetica Neue', Helvetica, Arial, sans-serif" font-weight="bold" text-anchor="middle" dominant-baseline="auto" data-station-id="liftover_bed" class="nf-metro-station-label">Liftover BED</text>
<text x="136.0" y="177.0" font-size="14.0" fill="#333333" font-family="'Helvetica Neue', Helvetica, Arial, sans-serif" font-weight="bold" text-anchor="middle" dominant-baseline="hanging" data-station-id="unzip_assembly" class="nf-metro-station-label">Unzip Assembly</text>
<text x="1620.5" y="171.0" font-size="14.0" fill="#333333" font-family="'Helvetica Neue', Helvetica, Arial, sans-serif" font-weight="bold" text-anchor="middle" dominant-baseline="hanging" data-station-id="liftover_gff_or_gtf" class="nf-metro-station-label">Liftover GFF/GTF</text>
<text x="538.5" y="106.0" font-size="14.0" fill="#333333" font-family="'Helvetica Neue', Helvetica, Arial, sans-serif" font-weight="bold" text-anchor="middle" dominant-baseline="auto" data-station-id="process_source" class="nf-metro-station-label">Process Source</text>
<text x="538.5" y="170.4" font-size="14.0" fill="#333333" font-family="'Helvetica Neue', Helvetica, Arial, sans-serif" font-weight="bold" text-anchor="middle" dominant-baseline="hanging" data-station-id="kmers_to_exclude" class="nf-metro-station-label">K-mers To Exclude</text>
<text x="1150.0" y="211.0" font-size="14.0" fill="#333333" font-family="'Helvetica Neue', Helvetica, Arial, sans-serif" font-weight="bold" text-anchor="middle" dominant-baseline="hanging" data-station-id="axtchain" class="nf-metro-station-label">Axtchain</text>
<text x="538.5" y="211.0" font-size="14.0" fill="#333333" font-family="'Helvetica Neue', Helvetica, Arial, sans-serif" font-weight="bold" text-anchor="middle" dominant-baseline="hanging" data-station-id="process_target" class="nf-metro-station-label">Process Target</text>
<text x="1210.0" y="146.0" font-size="14.0" fill="#333333" font-family="'Helvetica Neue', Helvetica, Arial, sans-serif" font-weight="bold" text-anchor="middle" dominant-baseline="auto" data-station-id="merge_chains" class="nf-metro-station-label">Merge Chains</text>
<text x="670.5" y="186.0" font-size="14.0" fill="#333333" font-family="'Helvetica Neue', Helvetica, Arial, sans-serif" font-weight="bold" text-anchor="middle" dominant-baseline="auto" data-station-id="split_target" class="nf-metro-station-label">Split Target</text>
<text x="800.5" y="171.0" font-size="14.0" fill="#333333" font-family="'Helvetica Neue', Helvetica, Arial, sans-serif" font-weight="bold" text-anchor="middle" dominant-baseline="hanging" data-station-id="blat" class="nf-metro-station-label">BLAT</text>
<text x="1310.5" y="174.0" font-size="14.0" fill="#333333" font-family="'Helvetica Neue', Helvetica, Arial, sans-serif" font-weight="bold" text-anchor="middle" dominant-baseline="hanging" data-station-id="net_chain" class="nf-metro-station-label">Net Chain</text>
<text x="1411.0" y="217.0" font-size="14.0" fill="#333333" font-family="'Helvetica Neue', Helvetica, Arial, sans-serif" font-weight="bold" text-anchor="middle" dominant-baseline="hanging" data-station-id="chain_stats" class="nf-metro-station-label">Chain Stats</text>
<rect x="60.0" y="305.0" width="341.6" height="96.0" rx="6" ry="6" fill="rgba(255, 255, 255, 0.8)" />
<path d="M72.0,329.0 L96.0,329.0" stroke="#2db572" stroke-width="4.0" stroke-linecap="round" />
<text x="108.0" y="329.0" font-size="16.0" fill="#333333" font-family="'Helvetica Neue', Helvetica, Arial, sans-serif" dy="0.3em">Main</text>
<path d="M72.0,353.0 L96.0,353.0" stroke="#f5c542" stroke-width="4.0" stroke-linecap="round" />
<text x="108.0" y="353.0" font-size="16.0" fill="#333333" font-family="'Helvetica Neue', Helvetica, Arial, sans-serif" dy="0.3em">Spur</text>
<path d="M72.0,377.0 L96.0,377.0" stroke="#0570b0" stroke-width="4.0" stroke-linecap="round" />
<text x="108.0" y="377.0" font-size="16.0" fill="#333333" font-family="'Helvetica Neue', Helvetica, Arial, sans-serif" dy="0.3em">Prepare Fastas - Generate Chains</text>
<text x="1726.0" y="417.0" font-size="8" fill="rgba(150, 150, 150, 0.6)" font-family="'Helvetica Neue', Helvetica, Arial, sans-serif" text-anchor="end">created with nf-metro v0.7.2</text>
</svg>
